<?xml version="1.0" standalone="no"?>
<!DOCTYPE svg PUBLIC "-//W3C//DTD SVG 20010904//EN"
 "http://www.w3.org/TR/2001/REC-SVG-20010904/DTD/svg10.dtd">
<svg version="1.0" xmlns="http://www.w3.org/2000/svg"
 width="512.000000pt" height="512.000000pt" viewBox="0 0 512.000000 512.000000"
 preserveAspectRatio="xMidYMid meet">

<g transform="translate(0.000000,512.000000) scale(0.100000,-0.100000)"
fill="#000000" stroke="none">
<path d="M2490 5109 c-27 -8 -298 -273 -1238 -1212 -662 -661 -1213 -1218
-1225 -1237 -34 -53 -31 -153 5 -207 71 -108 209 -122 311 -32 l47 40 2 -1158
c3 -1277 -2 -1182 65 -1245 65 -62 -92 -58 2103 -58 2195 0 2038 -4 2103 58
67 63 62 -32 65 1245 l2 1158 47 -40 c53 -47 109 -66 172 -57 120 16 194 133
161 256 -11 41 -107 140 -1213 1248 -661 662 -1217 1212 -1234 1223 -38 24
-123 33 -173 18z m957 -1361 l883 -883 0 -1232 0 -1233 -390 0 -389 0 -3 712
-3 713 -23 42 c-12 24 -41 55 -64 70 l-42 28 -856 0 -856 0 -42 -28 c-23 -15
-52 -46 -64 -70 l-23 -42 -3 -713 -3 -712 -389 0 -390 0 0 1232 0 1233 882
882 c486 486 885 883 888 883 3 0 402 -397 887 -882z m-297 -2763 l0 -585
-590 0 -590 0 0 585 0 585 590 0 590 0 0 -585z"/>
</g>
</svg>
